<svg xmlns="http://www.w3.org/2000/svg" shape-rendering="geometricPrecision" text-rendering="geometricPrecision" image-rendering="optimizeQuality" fill-rule="evenodd" clip-rule="evenodd" viewBox="0 0 512 512.001"><path fill-rule="nonzero" d="M0 256c0-70.408 28.808-134.421 75.194-180.806C121.579 28.808 185.592 0 256 0c70.409 0 134.422 28.808 180.807 75.194C483.192 121.579 512 185.592 512 256c0 70.409-28.808 134.422-75.193 180.807-46.385 46.385-110.398 75.194-180.807 75.194-70.408 0-134.421-28.809-180.806-75.194C28.808 390.422 0 326.409 0 256zm327.525-.669c0-4.747-1.922-9.049-4.996-12.111a17.084 17.084 0 00-12.136-5.02 17.12 17.12 0 00-12.11 5.02c-3.099 3.062-5.021 7.364-5.021 12.111a17.12 17.12 0 005.021 12.111 17.116 17.116 0 0012.11 5.02c4.748 0 9.049-1.921 12.111-4.995 3.087-3.112 5.021-7.413 5.021-12.136zm6.731-23.887a33.786 33.786 0 018.887 15.557h30.048v16.66h-30.048a33.735 33.735 0 01-8.863 15.557c-6.111 6.099-14.59 9.904-23.887 9.904-9.321 0-17.775-3.793-23.886-9.904-6.112-6.111-9.905-14.565-9.905-23.887 0-9.297 3.806-17.776 9.917-23.875 6.099-6.123 14.553-9.916 23.874-9.916 9.297 0 17.764 3.793 23.863 9.904zm-70.273 32.217H138.785v-16.66h125.198v16.66zm-92.944 73.421a33.77 33.77 0 018.875-15.545c6.099-6.123 14.553-9.916 23.875-9.916 9.297 0 17.763 3.793 23.862 9.904 6.136 6.124 9.929 14.59 9.929 23.887 0 9.322-3.793 17.776-9.904 23.887-6.111 6.099-14.59 9.904-23.887 9.904-9.322 0-17.776-3.793-23.887-9.904-4.227-4.227-7.351-9.582-8.863-15.557h-32.254v-16.66h32.254zm20.627-3.781c-3.087 3.062-5.008 7.363-5.008 12.111 0 4.723 1.933 9.024 5.02 12.111a17.121 17.121 0 0012.111 5.02c4.747 0 9.049-1.921 12.111-4.995 3.086-3.112 5.02-7.413 5.02-12.136 0-4.748-1.921-9.049-4.995-12.111a17.085 17.085 0 00-12.136-5.02 17.167 17.167 0 00-12.123 5.02zm58.521 3.781h122.992v16.66H250.187v-16.66zm-41.105-178.873a33.892 33.892 0 018.888-15.52 33.537 33.537 0 0123.887-9.941c9.284 0 17.751 3.806 23.874 9.917 6.149 6.16 9.954 14.627 9.954 23.911 0 9.334-3.793 17.788-9.917 23.912-6.135 6.111-14.614 9.917-23.911 9.917-9.334 0-17.788-3.794-23.912-9.917a33.826 33.826 0 01-8.875-15.545h-70.285v-16.734h70.297zm20.664-3.719c-3.074 3.05-4.983 7.339-4.983 12.086 0 4.711 1.921 9 5.008 12.087a17.072 17.072 0 0012.086 5.007c4.747 0 9.036-1.909 12.086-4.97 3.086-3.124 5.008-7.413 5.008-12.124 0-4.747-1.909-9.036-4.971-12.086-3.087-3.099-7.376-5.008-12.123-5.008-4.711 0-9 1.922-12.111 5.008zm58.521 3.719h84.937v16.734h-84.937v-16.734zM87.02 87.02C43.658 130.38 16.735 190.203 16.735 256c0 65.798 26.923 125.621 70.285 168.981 43.36 43.361 103.183 70.285 168.98 70.285 65.798 0 125.621-26.924 168.981-70.285 43.361-43.36 70.285-103.183 70.285-168.981 0-65.797-26.924-125.62-70.285-168.98C381.621 43.658 321.798 16.735 256 16.735c-65.797 0-125.62 26.923-168.98 70.285z"/></svg>